<?xml version="1.0" encoding="UTF-8"?>
<svg id="Layer_1" data-name="Layer 1" xmlns="http://www.w3.org/2000/svg" viewBox="0 0 2507.73 197.07">
  <path d="M1.46,194.08c-.98-.6-1.46-1.19-1.46-1.79V5.08c0-.6.48-1.19,1.46-1.79.77-.6,1.75-.9,2.92-.9h40.54c1.17,0,2.23.3,3.21.9.77.6,1.17,1.19,1.17,1.79v148.4l111.11.6c.97,0,2.04.4,3.21,1.19.77.6,1.17,1.4,1.17,2.39v33.74c0,.8-.39,1.6-1.17,2.39-.78.8-1.85,1.19-3.21,1.19H4.37c-1.17,0-2.14-.3-2.92-.9Z"/>
  <path d="M418.78,197.07c-31.11,0-55.41-8.06-72.91-24.18-17.5-16.12-26.25-39.61-26.25-70.47v-7.46c0-30.85,8.84-54.39,26.54-70.62C363.85,8.11,388.06,0,418.78,0s55.89,8.02,73.2,24.04c17.3,16.03,25.96,39.67,25.96,70.91v7.46c0,31.25-8.7,54.84-26.1,70.77-17.4,15.93-41.75,23.89-73.05,23.89ZM418.78,154.67c34.6,0,51.91-18.11,51.91-54.34v-3.58c0-36.23-17.31-54.34-51.91-54.34-17.11,0-30.04,4.68-38.79,14.03-8.75,9.36-13.12,22.79-13.12,40.31v3.58c0,17.72,4.47,31.2,13.42,40.46,8.94,9.26,21.77,13.88,38.5,13.88Z"/>
  <path d="M786.53,197.07c-21,0-38.84-2.09-53.52-6.27-14.68-4.18-26.1-11.39-34.27-21.65-8.17-10.25-12.25-24.23-12.25-41.95V5.08c0-.6.44-1.19,1.31-1.79s1.9-.9,3.06-.9h41.41c1.17,0,2.19.3,3.06.9.88.6,1.31,1.19,1.31,1.79v114.36c0,15.53,3.84,26.53,11.52,32.99,7.68,6.47,20.46,9.7,38.35,9.7s31.4-3.03,38.79-9.11c7.39-6.07,11.08-17.27,11.08-33.59V5.08c0-.6.44-1.19,1.31-1.79s1.9-.9,3.06-.9h41.41c1.17,0,2.19.3,3.06.9.88.6,1.31,1.19,1.31,1.79v122.12c0,25.48-8.27,43.5-24.79,54.04-16.53,10.55-41.61,15.82-75.24,15.82Z"/>
  <path d="M1122.49,194.98c-.98,0-1.9-.3-2.77-.9-.88-.6-1.31-1.19-1.31-1.79V40.31h-72.91c-1.17,0-2.14-.4-2.92-1.19-.78-.79-1.17-1.59-1.17-2.39V5.67c0-.6.39-1.29,1.17-2.09.77-.79,1.75-1.19,2.92-1.19h193.94c1.36,0,2.43.4,3.21,1.19.77.8,1.26,1.69,1.46,2.69v30.46c0,.8-.44,1.6-1.31,2.39-.88.8-2,1.19-3.35,1.19h-72.62v151.98c0,.6-.44,1.19-1.31,1.79-.87.6-1.9.9-3.06.9h-39.95Z"/>
  <path d="M1383.79,194.98c-.98,0-1.75-.3-2.33-.9-.78-.79-1.07-1.39-.87-1.79L1448.53,5.08c0-.6.39-1.19,1.17-1.79.77-.6,1.65-.9,2.62-.9h55.12c.97,0,1.85.3,2.62.9.77.6,1.17,1.19,1.17,1.79l67.37,187.21c-.58,1.79-1.65,2.69-3.21,2.69h-37.62c-1.95,0-3.21-.9-3.79-2.69l-14.87-39.71h-79.03l-14.29,39.71c-.2.6-.58,1.19-1.17,1.79-.78.6-1.65.9-2.62.9h-38.2ZM1500.73,104.8l-19.54-54.04h-1.46l-18.08,54.04h39.08Z"/>
  <path d="M1739.87,193.48c-.97,0-1.46-.4-1.46-1.19V5.08c0-.79.48-1.19,1.46-1.19h48.7c.97,0,1.46.4,1.46,1.19v61.81l67.08-63h70.58l-99.74,92.86,99.74,96.74h-70.58l-67.08-66.88v65.69c0,.8-.49,1.19-1.46,1.19h-48.7Z"/>
  <path d="M2089.53,194.98c-1.17,0-2.19-.3-3.06-.9-.88-.6-1.31-1.19-1.31-1.79V5.08c0-.6.44-1.19,1.31-1.79.87-.6,1.9-.9,3.06-.9h41.41c1.17,0,2.19.3,3.06.9s1.31,1.19,1.31,1.79v187.21c0,.6-.44,1.19-1.31,1.79-.88.6-1.9.9-3.06.9h-41.41Z"/>
  <path d="M2407.11,197.07c-20.61,0-38.3-1.89-53.08-5.67-14.78-3.78-26.39-10.55-34.85-20.3-8.46-9.75-12.69-23.09-12.69-40.01v-7.46c0-.6.44-1.19,1.31-1.79.88-.6,1.9-.9,3.06-.9h41.41c1.17,0,2.19.3,3.06.9s1.31,1.19,1.31,1.79v7.46c0,11.94,4.23,20.26,12.69,24.93,8.46,4.68,21.04,7.02,37.77,7.02s30.04-1.49,38.2-4.48,12.25-9.55,12.25-19.71v-2.99c0-7.76-4.42-13.24-13.27-16.42-8.85-3.18-23.24-5.87-43.16-8.06-19.93-2.19-35.43-4.28-46.52-6.27-11.08-1.99-21.73-6.62-31.93-13.88-10.21-7.26-15.31-17.57-15.31-30.9v-5.67c0-13.93,4.27-24.88,12.83-32.84,8.55-7.96,20.07-13.53,34.56-16.72,14.48-3.18,31.64-4.78,51.47-4.78s38.01,2.04,53.37,6.12c15.36,4.08,27.12,10.9,35.29,20.45,8.17,9.55,12.25,22.2,12.25,37.92v6.27c0,.6-.44,1.19-1.31,1.79-.87.6-1.9.9-3.06.9h-41.41c-1.17,0-2.19-.3-3.06-.9-.88-.6-1.31-1.19-1.31-1.79v-5.97c0-11.74-4.13-19.86-12.39-24.33-8.27-4.48-20.95-6.72-38.06-6.72s-29.07,1.54-37.04,4.63c-7.97,3.09-11.96,8.81-11.96,17.17v2.69c0,5.97,4.27,10.35,12.83,13.14,8.55,2.79,22.55,5.37,42,7.76,19.44,2.39,35.48,5.03,48.12,7.91,12.64,2.89,23.67,7.91,33.1,15.08,9.43,7.17,14.14,17.12,14.14,29.86v8.66c0,21.1-8.8,35.73-26.39,43.89-17.6,8.16-42.34,12.24-74.22,12.24Z"/>
</svg>